<mxfile host="Electron" modified="2023-09-24T14:38:39.255Z" agent="Mozilla/5.0 (X11; Linux x86_64) AppleWebKit/537.36 (KHTML, like Gecko) draw.io/21.7.5 Chrome/114.0.5735.289 Electron/25.8.1 Safari/537.36" etag="ya_2aETIccg-0579K_l2" version="21.7.5" type="device">
  <diagram id="C5RBs43oDa-KdzZeNtuy" name="Page-1">
    <mxGraphModel dx="1687" dy="931" grid="1" gridSize="10" guides="1" tooltips="1" connect="1" arrows="1" fold="1" page="1" pageScale="1" pageWidth="827" pageHeight="1169" math="0" shadow="0">
      <root>
        <mxCell id="WIyWlLk6GJQsqaUBKTNV-0" />
        <mxCell id="WIyWlLk6GJQsqaUBKTNV-1" parent="WIyWlLk6GJQsqaUBKTNV-0" />
        <mxCell id="e15TztKwWEexou06q2Yh-0" value="&lt;font style=&quot;font-size: 14px;&quot;&gt;Цикл i от 1 до l&lt;/font&gt;&lt;font size=&quot;1&quot; style=&quot;&quot;&gt;&lt;sub&gt;1&lt;/sub&gt;&lt;/font&gt;&lt;font style=&quot;&quot;&gt;&lt;span style=&quot;font-size: 14px;&quot;&gt;&amp;nbsp;+ 1&lt;/span&gt;&lt;/font&gt;" style="strokeWidth=2;html=1;shape=mxgraph.flowchart.loop_limit;whiteSpace=wrap;" vertex="1" parent="WIyWlLk6GJQsqaUBKTNV-1">
          <mxGeometry x="337" y="140" width="154" height="70" as="geometry" />
        </mxCell>
        <mxCell id="e15TztKwWEexou06q2Yh-1" value="&lt;span style=&quot;font-size: 14px;&quot;&gt;currRow[0] = i&amp;nbsp;&lt;/span&gt;" style="rounded=0;whiteSpace=wrap;html=1;" vertex="1" parent="WIyWlLk6GJQsqaUBKTNV-1">
          <mxGeometry x="334" y="250" width="160" height="70" as="geometry" />
        </mxCell>
        <mxCell id="e15TztKwWEexou06q2Yh-2" value="" style="endArrow=none;html=1;rounded=0;entryX=0.5;entryY=1;entryDx=0;entryDy=0;entryPerimeter=0;exitX=0.5;exitY=0;exitDx=0;exitDy=0;" edge="1" parent="WIyWlLk6GJQsqaUBKTNV-1" source="e15TztKwWEexou06q2Yh-1" target="e15TztKwWEexou06q2Yh-0">
          <mxGeometry width="50" height="50" relative="1" as="geometry">
            <mxPoint x="210" y="190" as="sourcePoint" />
            <mxPoint x="260" y="140" as="targetPoint" />
          </mxGeometry>
        </mxCell>
        <mxCell id="e15TztKwWEexou06q2Yh-3" value="&lt;font style=&quot;font-size: 14px;&quot;&gt;Цикл j от 1 до l&lt;/font&gt;&lt;font style=&quot;font-size: 8.33333px;&quot;&gt;&lt;sub&gt;2&lt;/sub&gt;&lt;/font&gt;&lt;font style=&quot;&quot;&gt;&lt;span style=&quot;font-size: 14px;&quot;&gt;&amp;nbsp;+ 1&lt;/span&gt;&lt;/font&gt;" style="strokeWidth=2;html=1;shape=mxgraph.flowchart.loop_limit;whiteSpace=wrap;" vertex="1" parent="WIyWlLk6GJQsqaUBKTNV-1">
          <mxGeometry x="337" y="360" width="154" height="70" as="geometry" />
        </mxCell>
        <mxCell id="e15TztKwWEexou06q2Yh-4" value="" style="endArrow=none;html=1;rounded=0;entryX=0.5;entryY=1;entryDx=0;entryDy=0;exitX=0.5;exitY=0;exitDx=0;exitDy=0;exitPerimeter=0;" edge="1" parent="WIyWlLk6GJQsqaUBKTNV-1" source="e15TztKwWEexou06q2Yh-3" target="e15TztKwWEexou06q2Yh-1">
          <mxGeometry width="50" height="50" relative="1" as="geometry">
            <mxPoint x="210" y="200" as="sourcePoint" />
            <mxPoint x="260" y="150" as="targetPoint" />
          </mxGeometry>
        </mxCell>
        <mxCell id="e15TztKwWEexou06q2Yh-5" value="&lt;font style=&quot;font-size: 14px;&quot;&gt;currRow[j] = min(&lt;br&gt;currRow[j-1] + 1,&lt;br&gt;prevRow[j] + 1,&lt;br&gt;prevRow[j-1] + &lt;br&gt;(S&lt;sub&gt;1&lt;/sub&gt;[i-1] != S&lt;sub&gt;2&lt;/sub&gt;&amp;nbsp;[j-1]))&lt;br&gt;&lt;/font&gt;" style="shape=process;whiteSpace=wrap;html=1;backgroundOutline=1;" vertex="1" parent="WIyWlLk6GJQsqaUBKTNV-1">
          <mxGeometry x="331" y="470" width="165.5" height="100" as="geometry" />
        </mxCell>
        <mxCell id="e15TztKwWEexou06q2Yh-6" value="" style="endArrow=none;html=1;rounded=0;entryX=0.5;entryY=1;entryDx=0;entryDy=0;entryPerimeter=0;" edge="1" parent="WIyWlLk6GJQsqaUBKTNV-1" source="e15TztKwWEexou06q2Yh-5" target="e15TztKwWEexou06q2Yh-3">
          <mxGeometry width="50" height="50" relative="1" as="geometry">
            <mxPoint x="210" y="540" as="sourcePoint" />
            <mxPoint x="260" y="490" as="targetPoint" />
          </mxGeometry>
        </mxCell>
        <mxCell id="e15TztKwWEexou06q2Yh-7" value="&lt;font style=&quot;font-size: 14px;&quot;&gt;&amp;nbsp;Конец цикла по j&lt;/font&gt;" style="strokeWidth=2;html=1;shape=mxgraph.flowchart.loop_limit;whiteSpace=wrap;direction=west;" vertex="1" parent="WIyWlLk6GJQsqaUBKTNV-1">
          <mxGeometry x="337" y="610" width="154" height="70" as="geometry" />
        </mxCell>
        <mxCell id="e15TztKwWEexou06q2Yh-8" value="" style="endArrow=none;html=1;rounded=0;entryX=0.5;entryY=1;entryDx=0;entryDy=0;exitX=0.5;exitY=1;exitDx=0;exitDy=0;exitPerimeter=0;" edge="1" parent="WIyWlLk6GJQsqaUBKTNV-1" source="e15TztKwWEexou06q2Yh-7" target="e15TztKwWEexou06q2Yh-5">
          <mxGeometry width="50" height="50" relative="1" as="geometry">
            <mxPoint x="210" y="550" as="sourcePoint" />
            <mxPoint x="260" y="500" as="targetPoint" />
          </mxGeometry>
        </mxCell>
        <mxCell id="e15TztKwWEexou06q2Yh-9" value="&lt;font style=&quot;font-size: 14px;&quot;&gt;swap(prevRow, currRow)&lt;br&gt;&lt;/font&gt;" style="shape=process;whiteSpace=wrap;html=1;backgroundOutline=1;" vertex="1" parent="WIyWlLk6GJQsqaUBKTNV-1">
          <mxGeometry x="337" y="720" width="154" height="70" as="geometry" />
        </mxCell>
        <mxCell id="e15TztKwWEexou06q2Yh-10" value="" style="endArrow=none;html=1;rounded=0;entryX=0.5;entryY=0;entryDx=0;entryDy=0;entryPerimeter=0;exitX=0.5;exitY=0;exitDx=0;exitDy=0;" edge="1" parent="WIyWlLk6GJQsqaUBKTNV-1" source="e15TztKwWEexou06q2Yh-9" target="e15TztKwWEexou06q2Yh-7">
          <mxGeometry width="50" height="50" relative="1" as="geometry">
            <mxPoint x="210" y="760" as="sourcePoint" />
            <mxPoint x="260" y="710" as="targetPoint" />
          </mxGeometry>
        </mxCell>
        <mxCell id="e15TztKwWEexou06q2Yh-11" value="&lt;font style=&quot;font-size: 14px;&quot;&gt;&amp;nbsp;Конец цикла по i&lt;/font&gt;" style="strokeWidth=2;html=1;shape=mxgraph.flowchart.loop_limit;whiteSpace=wrap;direction=west;" vertex="1" parent="WIyWlLk6GJQsqaUBKTNV-1">
          <mxGeometry x="337" y="830" width="154" height="70" as="geometry" />
        </mxCell>
        <mxCell id="e15TztKwWEexou06q2Yh-12" value="" style="endArrow=none;html=1;rounded=0;entryX=0.5;entryY=1;entryDx=0;entryDy=0;exitX=0.5;exitY=1;exitDx=0;exitDy=0;exitPerimeter=0;" edge="1" parent="WIyWlLk6GJQsqaUBKTNV-1" source="e15TztKwWEexou06q2Yh-11" target="e15TztKwWEexou06q2Yh-9">
          <mxGeometry width="50" height="50" relative="1" as="geometry">
            <mxPoint x="210" y="760" as="sourcePoint" />
            <mxPoint x="420" y="820" as="targetPoint" />
          </mxGeometry>
        </mxCell>
        <mxCell id="e15TztKwWEexou06q2Yh-13" value="&lt;span style=&quot;font-size: 14px;&quot;&gt;Вернуть prevRow[l&lt;sub&gt;2&lt;/sub&gt;]&lt;/span&gt;" style="rounded=0;whiteSpace=wrap;html=1;" vertex="1" parent="WIyWlLk6GJQsqaUBKTNV-1">
          <mxGeometry x="334" y="940" width="160" height="70" as="geometry" />
        </mxCell>
        <mxCell id="e15TztKwWEexou06q2Yh-14" value="" style="endArrow=none;html=1;rounded=0;entryX=0.5;entryY=0;entryDx=0;entryDy=0;entryPerimeter=0;exitX=0.5;exitY=0;exitDx=0;exitDy=0;" edge="1" parent="WIyWlLk6GJQsqaUBKTNV-1" source="e15TztKwWEexou06q2Yh-13" target="e15TztKwWEexou06q2Yh-11">
          <mxGeometry width="50" height="50" relative="1" as="geometry">
            <mxPoint x="210" y="1150" as="sourcePoint" />
            <mxPoint x="260" y="1100" as="targetPoint" />
          </mxGeometry>
        </mxCell>
        <mxCell id="e15TztKwWEexou06q2Yh-15" value="&lt;font style=&quot;font-size: 14px;&quot;&gt;Конец&lt;/font&gt;" style="strokeWidth=2;html=1;shape=mxgraph.flowchart.terminator;whiteSpace=wrap;" vertex="1" parent="WIyWlLk6GJQsqaUBKTNV-1">
          <mxGeometry x="326" y="1050" width="176" height="80" as="geometry" />
        </mxCell>
        <mxCell id="e15TztKwWEexou06q2Yh-16" value="" style="endArrow=none;html=1;rounded=0;entryX=0.5;entryY=1;entryDx=0;entryDy=0;" edge="1" parent="WIyWlLk6GJQsqaUBKTNV-1" source="e15TztKwWEexou06q2Yh-15" target="e15TztKwWEexou06q2Yh-13">
          <mxGeometry width="50" height="50" relative="1" as="geometry">
            <mxPoint x="210" y="1250" as="sourcePoint" />
            <mxPoint x="260" y="1200" as="targetPoint" />
          </mxGeometry>
        </mxCell>
        <mxCell id="e15TztKwWEexou06q2Yh-17" value="&lt;font style=&quot;font-size: 14px;&quot;&gt;A&lt;/font&gt;" style="ellipse;whiteSpace=wrap;html=1;aspect=fixed;" vertex="1" parent="WIyWlLk6GJQsqaUBKTNV-1">
          <mxGeometry x="374" y="20" width="80" height="80" as="geometry" />
        </mxCell>
        <mxCell id="e15TztKwWEexou06q2Yh-18" value="" style="endArrow=none;html=1;rounded=0;entryX=0.5;entryY=1;entryDx=0;entryDy=0;exitX=0.5;exitY=0;exitDx=0;exitDy=0;exitPerimeter=0;" edge="1" parent="WIyWlLk6GJQsqaUBKTNV-1" source="e15TztKwWEexou06q2Yh-0" target="e15TztKwWEexou06q2Yh-17">
          <mxGeometry width="50" height="50" relative="1" as="geometry">
            <mxPoint x="390" y="180" as="sourcePoint" />
            <mxPoint x="440" y="130" as="targetPoint" />
          </mxGeometry>
        </mxCell>
      </root>
    </mxGraphModel>
  </diagram>
</mxfile>
